<svg width="146" height="115" viewBox="0 0 146 115" fill="none" xmlns="http://www.w3.org/2000/svg">
<path d="M93.7097 59.1506C90.9478 59.1501 88.2276 58.4748 85.7842 57.1833C83.3408 55.8917 81.2478 54.0226 79.686 51.7375C78.6452 50.3118 77.5293 48.9426 76.3431 47.636C75.9865 47.2307 75.55 46.9038 75.0613 46.6758C74.5726 46.4479 74.0421 46.3239 73.5033 46.3116C72.9645 46.2993 72.4289 46.399 71.9304 46.6045C71.4318 46.8099 70.9811 47.1166 70.6064 47.5052L64.6611 53.6052C64.1351 54.1853 63.5687 54.7272 62.9662 55.2269C60.6017 57.1883 57.7519 58.4707 54.7194 58.9382C51.6868 59.4058 48.5846 59.0408 45.7422 57.8822C42.8997 56.7236 40.4231 54.8145 38.5751 52.3576C36.7271 49.9008 35.5768 46.9878 35.2463 43.9279C34.9157 40.8681 35.4173 37.7756 36.6978 34.9786C37.9782 32.1817 39.9898 29.7848 42.5189 28.0423C45.048 26.2998 48.0002 25.2768 51.0622 25.0818C54.1242 24.8869 57.1817 25.5273 59.9101 26.935C60.6912 27.3316 61.5776 27.4692 62.4417 27.3282C63.3058 27.1872 64.103 26.7748 64.7185 26.1503L75.7955 15.0386C77.387 13.4328 79.2808 12.1605 81.3669 11.2956C83.453 10.4307 85.6897 9.99055 87.9469 10.0007H92.797C93.3473 9.99455 93.8797 10.197 94.2877 10.5675C94.6957 10.9379 94.9493 11.4492 94.9978 11.9991C95.0164 12.2899 94.9752 12.5815 94.8769 12.8557C94.7786 13.13 94.6252 13.381 94.4262 13.5934C94.2272 13.8057 93.9869 13.9749 93.7201 14.0903C93.4533 14.2057 93.1658 14.2649 92.8753 14.2643H87.9469C86.2496 14.2617 84.5688 14.5976 83.002 15.2523C81.4352 15.907 80.0138 16.8675 78.8203 18.0781L64.2648 32.6792C64.2008 32.7705 64.1293 32.8563 64.0509 32.9355C63.9608 33.0309 63.8612 33.1168 63.7537 33.1919L58.0691 38.8942C57.9803 38.9824 57.9195 39.0952 57.8946 39.2181C57.8697 39.341 57.8818 39.4685 57.9293 39.5846C57.9768 39.7006 58.0576 39.7998 58.1614 39.8697C58.2652 39.9396 58.3874 39.977 58.5124 39.9771H67.8528C69.1752 39.9765 70.4842 39.711 71.7031 39.1963C72.9219 38.6815 74.026 37.9279 74.9507 36.9795L81.1672 30.5918C82.7946 28.8108 84.7799 27.3962 86.9923 26.4413C89.2046 25.4863 91.5936 25.0127 94.0017 25.0517C98.5094 25.0905 102.817 26.924 105.977 30.1489C109.137 33.3738 110.891 37.7258 110.852 42.2476C110.813 46.7694 108.985 51.0905 105.771 54.2605C102.556 57.4304 98.2174 59.1894 93.7097 59.1506V59.1506ZM52.1447 29.331C50.0988 29.3331 48.0834 29.8289 46.2687 30.7766C44.454 31.7244 42.8934 33.0962 41.7184 34.7764C40.5435 36.4565 39.7888 38.3956 39.5182 40.4298C39.2475 42.4641 39.4688 44.5338 40.1633 46.4642C40.8579 48.3947 42.0052 50.1291 43.5086 51.5211C45.012 52.9131 46.8272 53.9218 48.8009 54.462C50.7747 55.0022 52.849 55.058 54.8488 54.6248C56.8486 54.1916 58.7151 53.282 60.2908 51.9729C60.7494 51.5895 61.1816 51.1753 61.5842 50.7331L61.6363 50.6755L64.4108 47.8296C64.7115 47.5369 64.9175 47.1601 65.0017 46.7484C65.0859 46.3366 65.0446 45.9089 64.8831 45.5211C64.7215 45.1332 64.4473 44.8031 64.0961 44.5738C63.7449 44.3445 63.333 44.2267 62.914 44.2356H57.558C56.763 44.2479 55.9786 44.0516 55.2824 43.6662C54.5863 43.2808 54.0026 42.7197 53.5893 42.0383C53.0936 41.189 52.8928 40.1988 53.0183 39.2227C53.1438 38.2467 53.5886 37.34 54.2829 36.6447L57.3547 33.5633C57.6056 33.319 57.7913 33.0153 57.8947 32.6801C57.9981 32.3449 58.0158 31.9891 57.9462 31.6453C57.8766 31.3015 57.7219 30.9807 57.4965 30.7125C57.271 30.4444 56.9819 30.2373 56.6558 30.1105C55.2127 29.5722 53.6843 29.3009 52.1447 29.3101V29.331Z" fill="url(#paint0_linear_40_3307)"/>
<path d="M13.432 91.7514L13 92.0994C13.444 92.4714 13.984 93.0114 14.248 93.3594L14.836 92.8434C14.584 92.5434 14.092 92.0994 13.684 91.7514H15.928V90.9714H12.844C12.964 90.7314 13.072 90.4914 13.18 90.2514L12.388 90.0354C11.98 91.0074 11.296 91.9674 10.54 92.5914C10.744 92.7354 11.056 93.0354 11.176 93.1794C11.596 92.8074 12.004 92.3034 12.364 91.7514H13.432ZM12.712 98.6874C13.408 99.2394 14.296 100.043 14.728 100.523L15.388 99.9954C14.932 99.5034 14.032 98.7474 13.348 98.2194L12.712 98.6874ZM18.868 96.5154H17.968V97.3554H10.732V98.1114H17.968V100.115C17.968 100.283 17.908 100.331 17.704 100.355C17.5 100.367 16.768 100.367 15.964 100.331C16.072 100.571 16.18 100.847 16.204 101.087C17.248 101.087 17.932 101.087 18.34 100.967C18.736 100.859 18.868 100.655 18.868 100.139V98.1114H21.256V97.3554H18.868V96.5154ZM17.896 90.9834C18.004 90.7314 18.1 90.4914 18.172 90.2274L17.344 90.0354C17.044 91.0554 16.516 92.0274 15.856 92.6754C15.952 92.7354 16.084 92.8314 16.204 92.9274H15.532V93.6714H11.176V94.4514H15.532V95.5194H11.776V96.2394H20.152V95.5194H16.432V94.4514H20.824V93.6714H16.432V93.1074L16.54 93.2034C16.888 92.8074 17.236 92.3274 17.548 91.7634H18.724L18.196 92.1594C18.616 92.5554 19.108 93.1074 19.336 93.4554L19.948 92.9394C19.708 92.6154 19.228 92.1234 18.832 91.7634H21.472V90.9834H17.896ZM23.296 94.9914V95.9634H34.192V94.9914H23.296ZM46.744 91.8834V90.9954H36.148V91.8834H40.732V101.051H41.68V94.7394C43.048 95.4714 44.656 96.4554 45.472 97.1274L46.096 96.3234C45.148 95.6034 43.264 94.5234 41.836 93.8394L41.68 94.0194V91.8834H46.744ZM53.176 97.8954C54.436 97.4514 55.252 96.4674 55.252 95.1714C55.252 94.3314 54.892 93.7914 54.232 93.7914C53.74 93.7914 53.32 94.0914 53.32 94.6554C53.32 95.2194 53.728 95.5074 54.22 95.5074C54.292 95.5074 54.352 95.5074 54.424 95.4954C54.364 96.3114 53.836 96.8754 52.912 97.2594L53.176 97.8954ZM61.96 95.7234C62.272 94.8474 62.488 93.4794 62.56 92.5074L61.876 92.4234C61.792 93.3834 61.576 94.6914 61.264 95.4834L61.96 95.7234ZM62.956 101.063H63.832V90.1074H62.956V101.063ZM65.416 94.2114C65.272 93.6594 64.864 92.7354 64.492 92.0274L63.868 92.3154C64.216 93.0234 64.612 93.9594 64.744 94.5354L65.416 94.2114ZM68.932 97.1154C69.82 98.3634 70.96 100.055 71.488 101.027L72.292 100.571C71.716 99.6114 70.564 97.9554 69.664 96.7434L68.932 97.1154ZM68.728 92.8554H70.516V95.5914H68.668C68.716 95.0754 68.728 94.5714 68.728 94.0914V92.8554ZM71.392 95.5914V92.0154H68.728V90.1074H67.84V92.0154H65.5V92.8554H67.84V94.0914C67.84 94.5714 67.828 95.0754 67.78 95.5914H64.852V96.4434H67.66C67.36 97.9074 66.568 99.3834 64.468 100.427C64.672 100.595 64.96 100.931 65.092 101.123C67.36 99.8754 68.224 98.1474 68.536 96.4434H72.424V95.5914H71.392ZM84.016 92.1114C83.68 91.6314 82.948 90.8994 82.36 90.4074L81.7 90.8514C82.288 91.3674 82.984 92.1234 83.308 92.6274L84.016 92.1114ZM78.364 96.0834L78.256 95.2674C77.752 95.3994 77.248 95.5554 76.768 95.6874V93.3594H78.232V92.5194H76.768V90.1194H75.904V92.5194H74.188V93.3594H75.904V95.9274C75.208 96.1194 74.56 96.2994 74.044 96.4194L74.308 97.2834C74.788 97.1394 75.328 96.9954 75.904 96.8154V99.9354C75.904 100.103 75.832 100.163 75.664 100.163C75.52 100.163 75.004 100.175 74.428 100.151C74.548 100.391 74.668 100.751 74.704 100.979C75.532 100.979 76.024 100.955 76.336 100.811C76.648 100.679 76.768 100.439 76.768 99.9354V96.5514L78.364 96.0834ZM83.512 94.5834C83.116 95.4834 82.528 96.3954 81.808 97.1994C81.556 96.3114 81.34 95.2434 81.184 94.0434L84.856 93.6474L84.76 92.8314L81.088 93.2034C80.992 92.2434 80.92 91.2234 80.872 90.1554H79.984C80.032 91.2594 80.116 92.3034 80.212 93.2994L78.376 93.4914L78.46 94.3314L80.296 94.1394C80.488 95.6034 80.728 96.8994 81.088 97.9554C80.176 98.8074 79.12 99.5274 78.016 99.9594C78.268 100.139 78.544 100.427 78.712 100.655C79.66 100.223 80.596 99.5874 81.424 98.8314C82 100.151 82.804 100.931 83.872 101.015C84.472 101.063 84.94 100.463 85.216 98.5194C85.024 98.4474 84.64 98.2314 84.46 98.0274C84.34 99.3594 84.148 100.007 83.824 99.9834C83.14 99.9114 82.576 99.2394 82.132 98.1354C83.008 97.1994 83.74 96.1194 84.244 95.0274L83.512 94.5834ZM90.712 97.1394H93.1V96.3474H90.712V95.0634H89.86V96.3474H87.52V97.1394H89.86V99.1554C88.816 99.3354 87.844 99.5154 87.112 99.6354L87.304 100.463C88.876 100.163 91.144 99.7314 93.268 99.3234L93.208 98.5434C92.38 98.6994 91.528 98.8554 90.712 99.0114V97.1394ZM87.208 91.6914H89.104C88.72 92.5434 88.24 93.2874 88.06 93.5274C87.856 93.8154 87.676 94.0194 87.484 94.0554C87.592 94.2834 87.736 94.7034 87.784 94.8954C88.072 94.7634 88.504 94.7154 92.236 94.3554C92.416 94.6314 92.56 94.8954 92.656 95.0994L93.34 94.6554C92.992 93.9714 92.2 92.8914 91.528 92.0874L90.892 92.4714C91.18 92.8314 91.492 93.2394 91.78 93.6594L88.72 93.9234C89.2 93.2874 89.692 92.4834 90.1 91.6914H93.34V90.8994H87.208V91.6914ZM94.84 91.1514H94V98.3634H94.84V91.1514ZM96.352 90.3114V99.6834C96.352 99.8874 96.304 99.9354 96.1 99.9474C95.896 99.9594 95.236 99.9594 94.54 99.9354C94.672 100.175 94.828 100.583 94.864 100.811C95.728 100.811 96.364 100.787 96.736 100.643C97.096 100.511 97.228 100.235 97.228 99.6714V90.3114H96.352ZM102.796 91.9554C102.64 91.4634 102.292 90.7314 101.932 90.1794L101.188 90.4074C101.5 90.9714 101.836 91.7394 101.98 92.2314L102.796 91.9554ZM102.976 98.2314C103.288 96.9714 103.612 95.1474 103.852 93.7434L103.012 93.5874C102.856 95.0394 102.544 97.1394 102.232 98.4114C101.248 98.6514 100.336 98.8434 99.64 98.9994L99.856 99.8754C101.104 99.5634 102.772 99.1434 104.356 98.7354L104.272 97.9194L102.976 98.2314ZM100.252 93.8634C100.528 95.2194 100.78 96.9714 100.828 98.1474L101.584 98.0034C101.512 96.8274 101.248 95.0994 100.972 93.7314L100.252 93.8634ZM99.784 93.1794H104.416V92.3514H99.784V93.1794ZM109.108 99.6594H105.508V96.6474H109.108V99.6594ZM110.512 93.4434V92.5914H107.488V90.1074H106.588V95.8074H104.644V101.063H105.508V100.499H109.108V101.015H110.008V95.8074H107.488V93.4434H110.512ZM121.744 90.9834L121.528 91.0434H112.96V91.9194H120.676C119.776 92.7714 118.492 93.7074 117.34 94.2714V99.8994C117.34 100.115 117.268 100.175 117.016 100.187C116.74 100.199 115.816 100.211 114.82 100.175C114.964 100.415 115.132 100.811 115.18 101.063C116.392 101.063 117.184 101.051 117.64 100.907C118.108 100.775 118.264 100.511 118.264 99.8994V94.7154C119.752 93.8994 121.384 92.6514 122.44 91.4994L121.744 90.9834ZM126.148 100.307C126.58 100.307 126.94 99.9714 126.94 99.4794C126.94 98.9754 126.58 98.6274 126.148 98.6274C125.716 98.6274 125.356 98.9754 125.356 99.4794C125.356 99.9714 125.716 100.307 126.148 100.307ZM130.208 100.307C130.64 100.307 131 99.9714 131 99.4794C131 98.9754 130.64 98.6274 130.208 98.6274C129.776 98.6274 129.416 98.9754 129.416 99.4794C129.416 99.9714 129.776 100.307 130.208 100.307ZM134.268 100.307C134.7 100.307 135.06 99.9714 135.06 99.4794C135.06 98.9754 134.7 98.6274 134.268 98.6274C133.836 98.6274 133.476 98.9754 133.476 99.4794C133.476 99.9714 133.836 100.307 134.268 100.307Z" fill="#B5B2A6"/>
<defs>
<linearGradient id="paint0_linear_40_3307" x1="35.1432" y1="34.5782" x2="110.706" y2="34.5782" gradientUnits="userSpaceOnUse">
<stop stop-color="#F07E3F"/>
<stop offset="1" stop-color="#FFCE65"/>
</linearGradient>
</defs>
</svg>
