<svg width="158" height="28" viewBox="0 0 158 28" fill="none" xmlns="http://www.w3.org/2000/svg">
<path d="M2.52861 27.6452C2.18667 27.6702 1.84318 27.6257 1.51919 27.5144C1.1952 27.4031 0.897552 27.2273 0.644456 26.9979C0.419547 26.7459 0.247263 26.4522 0.137613 26.1337C0.0279634 25.8152 -0.0168783 25.4783 0.00567097 25.1425V7.75141C-0.0168783 7.41561 0.0279634 7.0787 0.137613 6.76022C0.247263 6.44174 0.419547 6.14801 0.644456 5.89605C0.890587 5.67013 1.18049 5.49624 1.4965 5.38496C1.81251 5.27367 2.14803 5.22733 2.48267 5.24873C4.12174 5.24873 4.94127 6.08296 4.94127 7.75141V23.4923H12.6112C14.0358 23.4923 14.7527 24.1761 14.7527 25.5482C14.7527 26.9204 14.0358 27.6406 12.6112 27.6406L2.52861 27.6452Z" fill="#F2EADF"/>
<path d="M25.1892 27.9963C23.5407 28.0399 21.905 27.6979 20.4145 26.998C19.134 26.3786 18.0673 25.3967 17.3492 24.1762C16.6132 22.8668 16.245 21.3853 16.2831 19.8865C16.2512 18.4112 16.6076 16.9532 17.3171 15.6562C17.9855 14.4668 18.9692 13.4815 20.1617 12.807C21.4338 12.1014 22.8728 11.7457 24.3299 11.7768C26.6031 11.7768 28.4122 12.4894 29.7572 13.9148C31.1022 15.3401 31.7716 17.2669 31.7655 19.6951C31.7655 20.4974 31.2691 20.8986 30.2673 20.8986H20.8786C20.9141 21.4116 21.0522 21.9124 21.285 22.3719C21.5177 22.8313 21.8405 23.2401 22.2343 23.5745C23.1296 24.1817 24.203 24.4768 25.2857 24.4132C25.8703 24.4075 26.4533 24.3495 27.0274 24.24C27.6761 24.1255 28.3046 23.9183 28.8932 23.6246C29.1262 23.485 29.3868 23.3968 29.6572 23.3661C29.9277 23.3354 30.2015 23.363 30.4603 23.4468C30.6625 23.5298 30.8451 23.6538 30.9962 23.8108C31.1474 23.9677 31.2638 24.1543 31.338 24.3585C31.4944 24.784 31.4944 25.2505 31.338 25.676C31.138 26.1713 30.7551 26.5724 30.2673 26.7974C29.4893 27.2161 28.6553 27.5231 27.7903 27.7091C26.9362 27.8973 26.0641 27.9936 25.1892 27.9963ZM24.5091 14.945C24.0564 14.9244 23.6041 14.9945 23.1793 15.1512C22.7545 15.3078 22.3659 15.5478 22.0367 15.8567C21.3658 16.5564 20.9542 17.4613 20.8694 18.4232H27.7627C27.6432 16.1074 26.5587 14.9481 24.5091 14.945Z" fill="#F2EADF"/>
<path d="M43.8792 27.9962C39.4706 27.9962 37.2662 25.8689 37.2662 21.6142V15.6743H35.9243C34.6682 15.6743 34.0402 15.0817 34.0402 13.8964C34.0402 12.7112 34.6682 12.1034 35.9243 12.073H37.2662V9.66605C37.2662 8.04318 38.0751 7.22717 39.6927 7.22717C41.3103 7.22717 42.0869 8.04318 42.0869 9.66605V12.073H45.1246C46.3562 12.073 46.9628 12.6747 46.9628 13.8964C46.9628 15.1181 46.3424 15.6743 45.1246 15.6743H42.0869V21.4273C42.0322 22.1474 42.2556 22.8612 42.7119 23.4239C42.9796 23.6661 43.2952 23.8503 43.6385 23.9649C43.9819 24.0795 44.3456 24.1219 44.7064 24.0895C45.0154 24.0932 45.3239 24.0611 45.6255 23.9938C45.8767 23.9347 46.1315 23.892 46.3883 23.8661C46.5252 23.8518 46.6635 23.8704 46.7915 23.9204C46.9195 23.9704 47.0334 24.0503 47.1236 24.1533C47.364 24.542 47.4659 24.9995 47.4131 25.4525C47.4251 25.9139 47.3374 26.3724 47.1558 26.7973C47.0679 26.9833 46.9439 27.1503 46.791 27.2888C46.638 27.4272 46.459 27.5344 46.2643 27.6042C45.8959 27.7314 45.5157 27.8215 45.1292 27.8732C44.7162 27.9453 44.2984 27.9864 43.8792 27.9962Z" fill="#F2EADF"/>
<path d="M61.7053 27.9964C60.7362 27.9927 59.7692 27.9073 58.8147 27.7411C57.8779 27.5886 56.969 27.2998 56.1172 26.8841C55.6514 26.6788 55.2818 26.3056 55.0832 25.8401C54.9292 25.4425 54.9292 25.0024 55.0832 24.6047C55.2202 24.2093 55.5069 23.8823 55.8828 23.693C56.0917 23.5916 56.3211 23.5389 56.5537 23.5389C56.7863 23.5389 57.0158 23.5916 57.2246 23.693C58.0002 24.0246 58.8068 24.2796 59.6328 24.4543C60.331 24.6002 61.0424 24.675 61.7559 24.6777C62.444 24.7274 63.1318 24.5786 63.7365 24.2492C63.9328 24.1331 64.095 23.9681 64.207 23.7705C64.3191 23.573 64.3771 23.3498 64.3753 23.1232C64.3753 22.3847 63.833 21.9288 62.7485 21.7556L59.3938 21.1539C58.2455 21.0122 57.1722 20.5126 56.3285 19.727C55.9727 19.3508 55.6962 18.9077 55.5155 18.4238C55.3348 17.94 55.2534 17.4253 55.2761 16.9098C55.2503 15.924 55.5649 14.9589 56.1677 14.1747C56.8146 13.3782 57.663 12.7663 58.6263 12.4013C59.7757 11.959 61.0012 11.7438 62.2338 11.7677C63.9562 11.7355 65.6624 12.1039 67.2154 12.8435C67.4335 12.9283 67.6295 13.0609 67.7887 13.2314C67.9478 13.4019 68.0661 13.6059 68.1345 13.8282C68.2545 14.2364 68.2268 14.6734 68.0564 15.0636C67.899 15.457 67.6036 15.7808 67.2245 15.9753C67.007 16.0753 66.7687 16.1229 66.5291 16.1142C66.2896 16.1055 66.0554 16.0407 65.8459 15.9252C65.2297 15.6404 64.5882 15.413 63.9296 15.2459C63.3958 15.1141 62.8482 15.0452 62.2981 15.0408C61.5768 14.9825 60.8545 15.1414 60.2255 15.4966C60.0292 15.6205 59.8677 15.7916 59.756 15.9941C59.6443 16.1965 59.5861 16.4238 59.5868 16.6545C59.5868 17.393 60.0861 17.858 61.0849 18.0495L64.4397 18.6512C65.6071 18.7856 66.7077 19.2617 67.6014 20.0188C67.9691 20.3853 68.2555 20.8241 68.4423 21.3069C68.6291 21.7897 68.7121 22.3059 68.6859 22.8223C68.7155 23.5649 68.5553 24.3028 68.2202 24.9675C67.8852 25.6322 67.3862 26.2021 66.7696 26.6242C65.4798 27.539 63.7917 27.9964 61.7053 27.9964Z" fill="#F2EADF"/>
<path d="M86.5487 27.6452C84.8208 27.6452 83.9614 26.7881 83.9614 25.0786V7.879C83.9614 6.16952 84.8208 5.3125 86.5487 5.3125H93.8326C96.2345 5.3125 98.0911 5.83065 99.4024 6.86698C100.045 7.36987 100.558 8.01682 100.899 8.75464C101.24 9.49246 101.4 10.3001 101.365 11.111C101.394 12.1977 101.083 13.2666 100.473 14.1699C99.8541 15.0403 98.9866 15.7071 97.9824 16.0845C99.1643 16.3552 100.212 17.0306 100.942 17.9919C101.671 18.9533 102.036 20.139 101.971 21.3406C101.971 23.3281 101.274 24.875 99.8803 25.9812C98.4864 27.0875 96.5869 27.6421 94.1819 27.6452H86.5487ZM88.6856 14.5027H92.9824C95.4089 14.5027 96.6221 13.5727 96.6221 11.7128C96.6221 9.85287 95.4089 8.94115 92.9824 8.97762H88.6994L88.6856 14.5027ZM88.6856 24.0028H93.5109C94.7885 24.0028 95.726 23.7597 96.3234 23.2734C96.8937 22.68 97.2119 21.8915 97.2119 21.0716C97.2119 20.2517 96.8937 19.4633 96.3234 18.8698C95.726 18.3866 94.7885 18.145 93.5109 18.145H88.6856V24.0028Z" fill="#F2EADF"/>
<path d="M109.94 27.9325C109.604 27.9534 109.267 27.905 108.951 27.7905C108.634 27.6759 108.345 27.4977 108.102 27.2669C107.65 26.7512 107.42 26.0799 107.463 25.3979V7.65119C107.463 5.96451 108.29 5.11658 109.954 5.11658C111.617 5.11658 112.412 5.96451 112.412 7.65119V25.3979C112.399 27.0846 111.576 27.9325 109.94 27.9325Z" fill="#F2EADF"/>
<path d="M121.144 27.9326C120.808 27.9535 120.471 27.9051 120.155 27.7906C119.838 27.676 119.549 27.4978 119.306 27.267C118.854 26.7513 118.624 26.08 118.667 25.398V7.53278C118.644 7.19698 118.689 6.86007 118.799 6.54159C118.908 6.22311 119.081 5.92938 119.306 5.67742C119.552 5.45128 119.842 5.27723 120.158 5.16594C120.474 5.05464 120.809 5.00843 121.144 5.0301C122.78 5.0301 123.602 5.86432 123.602 7.53278V15.0454H123.667L132.159 6.23812C132.486 5.8865 132.869 5.59214 133.294 5.36743C133.722 5.15674 134.196 5.05341 134.673 5.06655C134.965 5.04232 135.258 5.08068 135.533 5.17901C135.808 5.27734 136.059 5.43334 136.268 5.63638C136.435 5.81593 136.563 6.0285 136.642 6.26021C136.721 6.49192 136.75 6.73757 136.727 6.98117C136.672 7.51959 136.423 8.02002 136.024 8.3898L128.52 15.9936L136.47 24.386C136.916 24.813 137.183 25.3907 137.219 26.0043C137.229 26.2571 137.186 26.5092 137.093 26.7447C137 26.9801 136.858 27.1937 136.677 27.3719C136.454 27.5691 136.194 27.72 135.911 27.8156C135.628 27.9111 135.329 27.9494 135.032 27.928C134.509 27.9533 133.991 27.8197 133.547 27.5451C133.096 27.2242 132.685 26.8524 132.32 26.4373L123.699 17.4432H123.635V25.3934C123.678 26.0731 123.454 26.743 123.01 27.2624C122.766 27.5007 122.472 27.6839 122.15 27.7996C121.828 27.9152 121.485 27.9606 121.144 27.9326Z" fill="#F2EADF"/>
<path d="M144.912 27.6452C143.184 27.6452 142.325 26.7881 142.325 25.0786V7.879C142.325 6.16952 143.184 5.3125 144.912 5.3125H156.052C157.351 5.3125 158 5.94614 158 7.21343C158 8.48073 157.351 9.12501 156.052 9.14628H147.049V14.375H155.321C156.638 14.375 157.297 15.0193 157.297 16.3079C157.297 17.5964 156.638 18.2392 155.321 18.2362H147.049V23.8113H156.052C157.351 23.8113 158 24.445 158 25.7123C158 26.9796 157.351 27.6239 156.052 27.6452H144.912Z" fill="#F2EADF"/>
<path d="M52.4774 0.00189021C51.4793 -0.0293643 50.5084 0.328001 49.7724 0.997585C49.0365 1.66717 48.5938 2.59582 48.5391 3.58496C48.4012 5.96911 50.221 8.35783 51.4113 9.65703C51.5346 9.7935 51.6854 9.90266 51.8541 9.9774C52.0227 10.0521 52.2054 10.0907 52.3902 10.0907C52.5749 10.0907 52.7575 10.0521 52.9262 9.9774C53.0948 9.90266 53.2457 9.7935 53.369 9.65703C54.5179 8.36239 56.2872 6.01015 56.2872 3.84936C56.2885 2.84033 55.8897 1.87126 55.1769 1.15139C54.4641 0.431532 53.4945 0.0186467 52.4774 0.00189021ZM52.3902 5.96C52.0627 5.96 51.7427 5.86363 51.4705 5.6831C51.1984 5.50257 50.9863 5.246 50.8613 4.94586C50.7362 4.64572 50.7036 4.31552 50.7679 3.99705C50.8321 3.67858 50.9901 3.38619 51.2219 3.15686C51.4537 2.92753 51.749 2.7716 52.0702 2.70879C52.3914 2.64598 52.7242 2.67912 53.0264 2.80403C53.3286 2.92894 53.5867 3.14 53.768 3.41047C53.9492 3.68095 54.0454 3.99868 54.0445 4.32345C54.0361 4.75272 53.8579 5.16151 53.5485 5.46168C53.239 5.76185 52.823 5.92937 52.3902 5.92809V5.96Z" fill="#FFCE65"/>
</svg>
