<svg width="303" height="70" viewBox="0 0 303 70" fill="none" xmlns="http://www.w3.org/2000/svg">
<path d="M68.5623 59.1501C65.8004 59.1496 63.0802 58.4744 60.6368 57.1828C58.1934 55.8912 56.1004 54.0221 54.5387 51.737C53.4978 50.3113 52.3819 48.9422 51.1957 47.6355C50.8391 47.2302 50.4027 46.9033 49.9139 46.6754C49.4252 46.4474 48.8947 46.3234 48.3559 46.3111C47.8171 46.2988 47.2816 46.3985 46.783 46.604C46.2845 46.8094 45.8337 47.1161 45.459 47.5048L39.5137 53.6047C38.9877 54.1848 38.4213 54.7267 37.8188 55.2264C35.4543 57.1878 32.6045 58.4703 29.572 58.9378C26.5394 59.4053 23.4373 59.0403 20.5948 57.8817C17.7523 56.7231 15.2757 54.814 13.4277 52.3571C11.5797 49.9003 10.4294 46.9873 10.0989 43.9275C9.76836 40.8676 10.27 37.7751 11.5504 34.9782C12.8309 32.1812 14.8424 29.7843 17.3715 28.0418C19.9006 26.2993 22.8528 25.2763 25.9148 25.0813C28.9768 24.8864 32.0343 25.5268 34.7627 26.9345C35.5438 27.3311 36.4302 27.4688 37.2943 27.3277C38.1584 27.1867 38.9556 26.7743 39.5711 26.1498L50.6481 15.0381C52.2396 13.4323 54.1334 12.16 56.2195 11.2951C58.3056 10.4303 60.5423 9.99006 62.7995 10.0002H67.6496C68.1999 9.99406 68.7323 10.1965 69.1403 10.567C69.5483 10.9374 69.8019 11.4487 69.8505 11.9986C69.869 12.2894 69.8279 12.581 69.7295 12.8552C69.6312 13.1295 69.4778 13.3805 69.2788 13.5929C69.0798 13.8052 68.8395 13.9744 68.5727 14.0898C68.306 14.2052 68.0184 14.2644 67.7279 14.2639H62.7995C61.1022 14.2613 59.4214 14.5971 57.8546 15.2518C56.2878 15.9065 54.8664 16.867 53.6729 18.0776L39.1174 32.6787C39.0534 32.77 38.9819 32.8558 38.9035 32.9351C38.8134 33.0304 38.7138 33.1163 38.6063 33.1914L32.9217 38.8937C32.8329 38.9819 32.7721 39.0947 32.7472 39.2176C32.7224 39.3405 32.7344 39.4681 32.7819 39.5841C32.8294 39.7001 32.9102 39.7994 33.014 39.8692C33.1178 39.9391 33.24 39.9765 33.365 39.9766H42.7054C44.0278 39.976 45.3369 39.7105 46.5557 39.1958C47.7745 38.681 48.8786 37.9274 49.8033 36.979L56.0198 30.5913C57.6472 28.8104 59.6326 27.3957 61.8449 26.4408C64.0572 25.4858 66.4462 25.0122 68.8543 25.0512C73.362 25.09 77.6697 26.9236 80.8298 30.1484C83.9898 33.3733 85.7433 37.7253 85.7046 42.2471C85.6659 46.7689 83.8381 51.0901 80.6233 54.26C77.4085 57.4299 73.07 59.1889 68.5623 59.1501ZM26.9973 29.3305C24.9514 29.3326 22.936 29.8284 21.1213 30.7761C19.3067 31.7239 17.746 33.0958 16.571 34.7759C15.3961 36.456 14.6415 38.3951 14.3708 40.4293C14.1001 42.4636 14.3214 44.5333 15.0159 46.4638C15.7105 48.3942 16.8579 50.1286 18.3612 51.5206C19.8646 52.9126 21.6798 53.9213 23.6535 54.4615C25.6273 55.0017 27.7016 55.0575 29.7014 54.6243C31.7012 54.1911 33.5677 53.2815 35.1434 51.9724C35.602 51.589 36.0342 51.1748 36.4368 50.7326L36.4889 50.675L39.2634 47.8291C39.5641 47.5364 39.7701 47.1596 39.8543 46.7479C39.9385 46.3361 39.8972 45.9084 39.7357 45.5206C39.5741 45.1327 39.2999 44.8026 38.9487 44.5733C38.5975 44.3441 38.1856 44.2262 37.7666 44.2351H32.4106C31.6156 44.2474 30.8312 44.0512 30.135 43.6658C29.4389 43.2803 28.8553 42.7192 28.4419 42.0378C27.9462 41.1885 27.7454 40.1983 27.8709 39.2222C27.9965 38.2462 28.4412 37.3395 29.1355 36.6442L32.2073 33.5628C32.4582 33.3185 32.6439 33.0148 32.7473 32.6796C32.8507 32.3445 32.8684 31.9886 32.7988 31.6448C32.7292 31.301 32.5746 30.9802 32.3491 30.7121C32.1236 30.4439 31.8345 30.2368 31.5084 30.11C30.0654 29.5717 28.5369 29.3005 26.9973 29.3096V29.3305Z" fill="url(#paint0_linear_17_201)"/>
<path d="M118.575 53.7257C118.187 53.7545 117.797 53.7034 117.429 53.5756C117.062 53.4479 116.724 53.2462 116.437 52.9828C116.181 52.6937 115.986 52.3566 115.861 51.9911C115.737 51.6256 115.686 51.239 115.712 50.8537V30.8955C115.686 30.5101 115.737 30.1235 115.861 29.758C115.986 29.3925 116.181 29.0554 116.437 28.7663C116.716 28.507 117.045 28.3075 117.403 28.1797C117.762 28.052 118.143 27.9989 118.523 28.0234C120.383 28.0234 121.313 28.9808 121.313 30.8955V48.9599H130.017C131.634 48.9599 132.447 49.7446 132.447 51.3192C132.447 52.8939 131.634 53.7205 130.017 53.7205L118.575 53.7257Z" fill="#F2EADF"/>
<path d="M144.291 54.1287C142.42 54.1787 140.564 53.7863 138.872 52.983C137.419 52.2723 136.209 51.1454 135.394 49.7448C134.558 48.242 134.141 46.5419 134.184 44.8219C134.148 43.1288 134.552 41.4555 135.357 39.9671C136.116 38.6022 137.232 37.4714 138.585 36.6974C140.029 35.8876 141.662 35.4795 143.316 35.5151C145.895 35.5151 147.948 36.3329 149.475 37.9687C151.001 39.6044 151.761 41.8155 151.754 44.6022C151.754 45.5229 151.191 45.9833 150.054 45.9833H139.399C139.439 46.572 139.596 47.1468 139.86 47.6741C140.124 48.2013 140.491 48.6705 140.938 49.0542C141.954 49.7511 143.172 50.0897 144.4 50.0168C145.064 50.0102 145.725 49.9437 146.377 49.818C147.113 49.6866 147.826 49.4487 148.494 49.1117C148.759 48.9515 149.054 48.8503 149.361 48.8151C149.668 48.7799 149.979 48.8115 150.273 48.9077C150.502 49.0029 150.709 49.1452 150.881 49.3254C151.052 49.5055 151.185 49.7196 151.269 49.954C151.446 50.4423 151.446 50.9777 151.269 51.4659C151.042 52.0344 150.607 52.4946 150.054 52.7529C149.171 53.2334 148.224 53.5857 147.243 53.7992C146.273 54.0152 145.284 54.1256 144.291 54.1287ZM143.519 39.151C143.005 39.1274 142.492 39.2078 142.01 39.3876C141.528 39.5674 141.087 39.8428 140.713 40.1973C139.952 41.0002 139.485 42.0386 139.389 43.1426H147.211C147.076 40.485 145.845 39.1545 143.519 39.151Z" fill="#F2EADF"/>
<path d="M165.501 54.1286C160.498 54.1286 157.996 51.6873 157.996 46.8045V39.9879H156.474C155.048 39.9879 154.335 39.3078 154.335 37.9476C154.335 36.5874 155.048 35.8899 156.474 35.855H157.996V33.0928C157.996 31.2304 158.914 30.2939 160.75 30.2939C162.586 30.2939 163.467 31.2304 163.467 33.0928V35.855H166.914C168.312 35.855 169 36.5456 169 37.9476C169 39.3497 168.296 39.9879 166.914 39.9879H163.467V46.5901C163.405 47.4165 163.659 48.2357 164.176 48.8815C164.48 49.1594 164.838 49.3708 165.228 49.5023C165.618 49.6338 166.03 49.6825 166.44 49.6453C166.79 49.6495 167.141 49.6126 167.483 49.5354C167.768 49.4676 168.057 49.4186 168.349 49.3889C168.504 49.3724 168.661 49.3938 168.806 49.4512C168.951 49.5085 169.081 49.6002 169.183 49.7185C169.456 50.1646 169.571 50.6896 169.511 51.2095C169.525 51.7389 169.426 52.2652 169.219 52.7528C169.12 52.9662 168.979 53.1579 168.805 53.3167C168.632 53.4756 168.429 53.5986 168.208 53.6787C167.79 53.8247 167.358 53.9281 166.92 53.9874C166.451 54.0702 165.977 54.1174 165.501 54.1286Z" fill="#F2EADF"/>
<path d="M185.731 54.1288C184.631 54.1246 183.534 54.0266 182.45 53.8358C181.387 53.6608 180.356 53.3294 179.389 52.8523C178.861 52.6168 178.441 52.1885 178.216 51.6543C178.041 51.198 178.041 50.6929 178.216 50.2366C178.371 49.7828 178.697 49.4075 179.123 49.1903C179.36 49.0738 179.621 49.0133 179.885 49.0133C180.148 49.0133 180.409 49.0738 180.646 49.1903C181.526 49.5707 182.441 49.8634 183.379 50.0639C184.171 50.2313 184.978 50.3172 185.788 50.3203C186.569 50.3773 187.35 50.2065 188.036 49.8285C188.259 49.6953 188.443 49.5059 188.57 49.2792C188.697 49.0525 188.763 48.7964 188.761 48.5363C188.761 47.6888 188.145 47.1657 186.915 46.9669L183.108 46.2763C181.804 46.1138 180.586 45.5404 179.629 44.6389C179.225 44.207 178.911 43.6985 178.706 43.1433C178.501 42.5881 178.409 41.9974 178.435 41.4058C178.405 40.2744 178.762 39.167 179.446 38.2669C180.181 37.3529 181.143 36.6506 182.237 36.2319C183.541 35.7242 184.932 35.4772 186.33 35.5047C188.285 35.4677 190.221 35.8905 191.984 36.7393C192.231 36.8366 192.454 36.9887 192.634 37.1844C192.815 37.3801 192.949 37.6143 193.027 37.8693C193.163 38.3378 193.132 38.8393 192.938 39.287C192.76 39.7386 192.424 40.1102 191.994 40.3333C191.747 40.4481 191.477 40.5027 191.205 40.4927C190.933 40.4827 190.667 40.4084 190.43 40.2758C189.73 39.949 189.002 39.688 188.255 39.4963C187.649 39.345 187.028 39.266 186.403 39.2609C185.585 39.194 184.765 39.3763 184.051 39.784C183.829 39.9262 183.645 40.1225 183.519 40.3549C183.392 40.5872 183.326 40.848 183.327 41.1129C183.327 41.9604 183.893 42.494 185.027 42.7137L188.834 43.4042C190.159 43.5584 191.408 44.1048 192.422 44.9737C192.839 45.3943 193.164 45.8978 193.376 46.4519C193.588 47.006 193.682 47.5983 193.653 48.1911C193.686 49.0432 193.504 49.8901 193.124 50.6529C192.744 51.4157 192.178 52.0697 191.478 52.5541C190.014 53.6039 188.098 54.1288 185.731 54.1288Z" fill="#F2EADF"/>
<path d="M213.924 53.7258C211.963 53.7258 210.988 52.7422 210.988 50.7804V31.042C210.988 29.0802 211.963 28.0967 213.924 28.0967H222.19C224.916 28.0967 227.023 28.6913 228.511 29.8806C229.24 30.4577 229.822 31.2002 230.209 32.0469C230.596 32.8936 230.777 33.8204 230.738 34.7511C230.771 35.9982 230.418 37.2249 229.726 38.2615C229.023 39.2604 228.039 40.0256 226.899 40.4587C228.241 40.7694 229.43 41.5444 230.258 42.6477C231.086 43.7509 231.5 45.1116 231.426 46.4906C231.426 48.7715 230.635 50.5468 229.053 51.8163C227.471 53.0858 225.316 53.7223 222.586 53.7258H213.924ZM216.349 38.6434H221.225C223.979 38.6434 225.356 37.5761 225.356 35.4417C225.356 33.3072 223.979 32.2609 221.225 32.3028H216.365L216.349 38.6434ZM216.349 49.5458H221.825C223.275 49.5458 224.339 49.2668 225.017 48.7087C225.664 48.0277 226.025 47.1229 226.025 46.1819C226.025 45.241 225.664 44.3362 225.017 43.6551C224.339 43.1006 223.275 42.8233 221.825 42.8233H216.349V49.5458Z" fill="#F2EADF"/>
<path d="M240.469 54.0555C240.088 54.0795 239.706 54.024 239.347 53.8925C238.988 53.7611 238.66 53.5565 238.383 53.2917C237.87 52.6999 237.61 51.9295 237.658 51.1468V30.7806C237.658 28.8449 238.597 27.8718 240.485 27.8718C242.373 27.8718 243.275 28.8449 243.275 30.7806V51.1468C243.259 53.0824 242.326 54.0555 240.469 54.0555Z" fill="#F2EADF"/>
<path d="M253.184 54.0556C252.802 54.0796 252.42 54.0241 252.061 53.8926C251.702 53.7612 251.374 53.5566 251.098 53.2918C250.585 52.7 250.324 51.9296 250.373 51.1469V30.6447C250.347 30.2593 250.398 29.8727 250.523 29.5072C250.647 29.1417 250.843 28.8046 251.098 28.5154C251.377 28.2559 251.706 28.0562 252.065 27.9285C252.423 27.8007 252.804 27.7477 253.184 27.7726C255.04 27.7726 255.974 28.7299 255.974 30.6447V39.2661H256.047L265.685 29.1589C266.055 28.7554 266.49 28.4176 266.973 28.1597C267.458 27.9179 267.996 27.7993 268.537 27.8144C268.868 27.7866 269.201 27.8306 269.513 27.9435C269.826 28.0563 270.11 28.2353 270.347 28.4683C270.537 28.6744 270.682 28.9183 270.772 29.1842C270.862 29.4502 270.895 29.7321 270.869 30.0116C270.806 30.6295 270.523 31.2038 270.071 31.6282L261.554 40.3543L270.577 49.9855C271.082 50.4755 271.386 51.1385 271.427 51.8426C271.438 52.1328 271.389 52.4221 271.284 52.6923C271.178 52.9625 271.017 53.2076 270.811 53.4121C270.558 53.6385 270.263 53.8117 269.942 53.9213C269.622 54.031 269.282 54.0748 268.944 54.0504C268.351 54.0794 267.763 53.926 267.26 53.6109C266.748 53.2426 266.281 52.816 265.867 52.3396L256.083 42.0179H256.01V51.1416C256.059 51.9217 255.805 52.6904 255.301 53.2865C255.024 53.56 254.692 53.7702 254.326 53.9029C253.961 54.0356 253.571 54.0877 253.184 54.0556Z" fill="#F2EADF"/>
<path d="M280.157 53.7258C278.196 53.7258 277.221 52.7422 277.221 50.7804V31.042C277.221 29.0802 278.196 28.0967 280.157 28.0967H292.798C294.273 28.0967 295.01 28.8238 295.01 30.2782C295.01 31.7326 294.273 32.4719 292.798 32.4964H282.582V38.4969H291.969C293.464 38.4969 294.212 39.2363 294.212 40.715C294.212 42.1938 293.464 42.9314 291.969 42.928H282.582V49.3261H292.798C294.273 49.3261 295.01 50.0533 295.01 51.5076C295.01 52.962 294.273 53.7014 292.798 53.7258H280.157Z" fill="#F2EADF"/>
<path d="M175.259 22.0022C174.126 21.9663 173.024 22.3764 172.189 23.1448C171.354 23.9133 170.851 24.979 170.789 26.1141C170.633 28.8502 172.698 31.5915 174.049 33.0825C174.189 33.2391 174.36 33.3644 174.551 33.4501C174.743 33.5359 174.95 33.5802 175.16 33.5802C175.369 33.5802 175.576 33.5359 175.768 33.4501C175.959 33.3644 176.131 33.2391 176.27 33.0825C177.574 31.5967 179.582 28.8973 179.582 26.4176C179.584 25.2596 179.131 24.1475 178.322 23.3213C177.513 22.4952 176.413 22.0214 175.259 22.0022ZM175.16 28.8397C174.788 28.8397 174.425 28.7291 174.116 28.522C173.807 28.3148 173.566 28.0203 173.425 27.6759C173.283 27.3315 173.246 26.9525 173.319 26.587C173.391 26.2216 173.571 25.886 173.834 25.6228C174.097 25.3597 174.432 25.1807 174.796 25.1086C175.161 25.0365 175.539 25.0746 175.882 25.2179C176.225 25.3613 176.517 25.6035 176.723 25.9139C176.929 26.2243 177.038 26.5889 177.037 26.9616C177.027 27.4543 176.825 27.9234 176.474 28.2679C176.123 28.6123 175.651 28.8046 175.16 28.8031V28.8397Z" fill="#FFCE65"/>
<defs>
<linearGradient id="paint0_linear_17_201" x1="9.99578" y1="34.5777" x2="85.5586" y2="34.5777" gradientUnits="userSpaceOnUse">
<stop stop-color="#F07E3F"/>
<stop offset="1" stop-color="#FFCE65"/>
</linearGradient>
</defs>
</svg>
