<svg width="70" height="70" viewBox="0 0 70 70" fill="none" xmlns="http://www.w3.org/2000/svg">
<g filter="url(#filter0_d_30_333)">
<rect x="10" width="50" height="50" rx="25" fill="#213649"/>
</g>
<g clip-path="url(#clip0_30_333)">
<path d="M35 20.9781C34.2024 20.9781 33.4228 21.2146 32.7596 21.6577C32.0964 22.1007 31.5796 22.7305 31.2744 23.4673C30.9692 24.204 30.8893 25.0148 31.0449 25.7969C31.2005 26.5791 31.5846 27.2976 32.1485 27.8615C32.7125 28.4254 33.431 28.8094 34.2133 28.965C34.9955 29.1206 35.8063 29.0407 36.5432 28.7355C37.2801 28.4303 37.9099 27.9135 38.353 27.2504C38.7961 26.5874 39.0326 25.8078 39.0326 25.0103C39.031 23.9414 38.6057 22.9167 37.8498 22.1609C37.0938 21.405 36.069 20.9797 35 20.9781ZM35 27.2675C34.5535 27.2675 34.1171 27.1351 33.7458 26.8871C33.3746 26.6391 33.0853 26.2865 32.9144 25.8741C32.7436 25.4616 32.6989 25.0078 32.786 24.57C32.8731 24.1321 33.088 23.7299 33.4038 23.4142C33.7195 23.0986 34.1217 22.8836 34.5596 22.7965C34.9975 22.7094 35.4514 22.7541 35.8639 22.9249C36.2764 23.0958 36.6289 23.3851 36.877 23.7563C37.125 24.1275 37.2574 24.5639 37.2574 25.0103C37.2543 25.6072 37.0152 26.1786 36.5923 26.5998C36.1693 27.021 35.5969 27.2578 35 27.2586V27.2675Z" fill="#B5B2A6"/>
<path d="M47.3937 24.114H44.083C43.875 22.0113 42.9448 20.0457 41.4505 18.5517C39.9563 17.0576 37.9905 16.1275 35.8876 15.9195V12.6062C35.8876 12.3709 35.7941 12.1451 35.6276 11.9787C35.4612 11.8122 35.2354 11.7188 35 11.7188C34.7646 11.7188 34.5388 11.8122 34.3724 11.9787C34.2059 12.1451 34.1124 12.3709 34.1124 12.6062V15.9195C32.0095 16.1275 30.0437 17.0576 28.5495 18.5517C27.0553 20.0457 26.125 22.0113 25.917 24.114H22.6063C22.3709 24.114 22.1452 24.2075 21.9787 24.3739C21.8123 24.5404 21.7188 24.7661 21.7188 25.0015C21.7188 25.2368 21.8123 25.4626 21.9787 25.629C22.1452 25.7955 22.3709 25.889 22.6063 25.889H25.917C26.1255 27.9914 27.056 29.9567 28.5501 31.4507C30.0442 32.9446 32.0097 33.8749 34.1124 34.0834V37.3938C34.1124 37.6291 34.2059 37.8549 34.3724 38.0213C34.5388 38.1877 34.7646 38.2812 35 38.2812C35.2354 38.2812 35.4612 38.1877 35.6276 38.0213C35.7941 37.8549 35.8876 37.6291 35.8876 37.3938V34.0834C37.9903 33.8749 39.9558 32.9446 41.4499 31.4507C42.944 29.9567 43.8745 27.9914 44.083 25.889H47.3937C47.6291 25.889 47.8548 25.7955 48.0213 25.629C48.1877 25.4626 48.2813 25.2368 48.2813 25.0015C48.2813 24.7661 48.1877 24.5404 48.0213 24.3739C47.8548 24.2075 47.6291 24.114 47.3937 24.114V24.114ZM35 32.3528C33.5459 32.3528 32.1244 31.9217 30.9154 31.1139C29.7063 30.3061 28.7639 29.158 28.2075 27.8147C27.651 26.4714 27.5054 24.9933 27.7891 23.5673C28.0728 22.1413 28.773 20.8314 29.8012 19.8033C30.8295 18.7752 32.1395 18.075 33.5657 17.7914C34.9918 17.5077 36.4701 17.6533 37.8135 18.2097C39.157 18.7661 40.3052 19.7084 41.1131 20.9173C41.921 22.1262 42.3522 23.5475 42.3522 25.0015C42.3498 26.9504 41.5745 28.8189 40.1962 30.1971C38.8179 31.5752 36.9492 32.3505 35 32.3528V32.3528Z" fill="#B5B2A6"/>
</g>
<defs>
<filter id="filter0_d_30_333" x="0" y="0" width="70" height="70" filterUnits="userSpaceOnUse" color-interpolation-filters="sRGB">
<feFlood flood-opacity="0" result="BackgroundImageFix"/>
<feColorMatrix in="SourceAlpha" type="matrix" values="0 0 0 0 0 0 0 0 0 0 0 0 0 0 0 0 0 0 127 0" result="hardAlpha"/>
<feOffset dy="10"/>
<feGaussianBlur stdDeviation="5"/>
<feComposite in2="hardAlpha" operator="out"/>
<feColorMatrix type="matrix" values="0 0 0 0 0 0 0 0 0 0 0 0 0 0 0 0 0 0 0.2 0"/>
<feBlend mode="normal" in2="BackgroundImageFix" result="effect1_dropShadow_30_333"/>
<feBlend mode="normal" in="SourceGraphic" in2="effect1_dropShadow_30_333" result="shape"/>
</filter>
<clipPath id="clip0_30_333">
<rect width="26.5625" height="26.5625" fill="white" transform="translate(21.7188 11.7188)"/>
</clipPath>
</defs>
</svg>
