<svg width="70" height="70" viewBox="0 0 70 70" fill="none" xmlns="http://www.w3.org/2000/svg">
<g filter="url(#filter0_d_40_1963)">
<rect x="10" width="50" height="50" rx="25" fill="#213649"/>
</g>
<g clip-path="url(#clip0_40_1963)">
<path d="M43.3328 17.9613C41.4385 15.7421 38.7288 14.3549 35.7987 14.1041C32.8685 13.8534 29.9571 14.7596 27.7036 16.6239C27.3686 16.9064 27.0496 17.2068 26.748 17.5238L25.3596 16.3927C25.2624 16.3119 25.1442 16.2597 25.0184 16.2421C24.8926 16.2244 24.7642 16.242 24.6481 16.2928C24.5319 16.3436 24.4325 16.4256 24.3613 16.5294C24.2901 16.6332 24.2499 16.7547 24.2453 16.88L24.0614 21.4541C24.0569 21.5573 24.0768 21.6602 24.1193 21.7545C24.1619 21.8489 24.226 21.9322 24.3067 21.998C24.3874 22.0638 24.4825 22.1103 24.5845 22.1339C24.6864 22.1574 24.7925 22.1572 24.8945 22.1335L29.4274 21.1056C29.5506 21.077 29.6634 21.0152 29.753 20.927C29.8426 20.8388 29.9055 20.7277 29.9347 20.6062C29.9639 20.4847 29.9582 20.3576 29.9183 20.2391C29.8784 20.1206 29.8058 20.0154 29.7087 19.9354L28.4321 18.8932C28.6484 18.6762 28.8684 18.4628 29.11 18.2636C30.5755 17.0513 32.3971 16.3353 34.3063 16.2213C36.2155 16.1073 38.1113 16.6013 39.7143 17.6304C41.3174 18.6595 42.5428 20.1693 43.2101 21.9374C43.8774 23.7054 43.9512 25.6381 43.4206 27.4506C42.89 29.2632 41.7831 30.8596 40.2631 32.0047C38.7431 33.1498 36.8903 33.783 34.9778 33.811C33.0653 33.8389 31.1943 33.2601 29.6406 32.1599C28.0868 31.0597 26.9325 29.4963 26.3477 27.7001C26.2526 27.4402 26.059 27.2268 25.8077 27.1048C25.5563 26.9828 25.2667 26.9618 24.9999 27.0461C24.7331 27.1304 24.5099 27.3136 24.3772 27.5569C24.2445 27.8003 24.2128 28.085 24.2886 28.351C24.7883 29.891 25.6278 31.3026 26.7466 32.4844C27.8655 33.6662 29.2359 34.5888 30.7594 35.1859C32.2828 35.783 33.9215 36.0397 35.5576 35.9375C37.1936 35.8354 38.7864 35.377 40.2214 34.5952C41.6564 33.8135 42.8979 32.7278 43.8568 31.4163C44.8156 30.1048 45.468 28.6 45.7669 27.0102C46.0657 25.4203 46.0038 23.785 45.5854 22.2216C45.167 20.6582 44.4026 19.2056 43.3472 17.9684L43.3328 17.9613Z" fill="#B5B2A6"/>
</g>
<defs>
<filter id="filter0_d_40_1963" x="0" y="0" width="70" height="70" filterUnits="userSpaceOnUse" color-interpolation-filters="sRGB">
<feFlood flood-opacity="0" result="BackgroundImageFix"/>
<feColorMatrix in="SourceAlpha" type="matrix" values="0 0 0 0 0 0 0 0 0 0 0 0 0 0 0 0 0 0 127 0" result="hardAlpha"/>
<feOffset dy="10"/>
<feGaussianBlur stdDeviation="5"/>
<feComposite in2="hardAlpha" operator="out"/>
<feColorMatrix type="matrix" values="0 0 0 0 0 0 0 0 0 0 0 0 0 0 0 0 0 0 0.2 0"/>
<feBlend mode="normal" in2="BackgroundImageFix" result="effect1_dropShadow_40_1963"/>
<feBlend mode="normal" in="SourceGraphic" in2="effect1_dropShadow_40_1963" result="shape"/>
</filter>
<clipPath id="clip0_40_1963">
<rect width="21.875" height="21.875" fill="white" transform="translate(24.0625 14.0625)"/>
</clipPath>
</defs>
</svg>
