<svg width="82" height="82" viewBox="0 0 82 82" fill="none" xmlns="http://www.w3.org/2000/svg">
<g filter="url(#filter0_bd_30_326)">
<rect x="16" y="6" width="50" height="50" rx="25" fill="#213649"/>
</g>
<g clip-path="url(#clip0_30_326)">
<path d="M52.0364 22.4847H40.7494C40.5861 22.0078 40.2734 21.5932 39.8556 21.2994C39.4377 21.0056 38.9359 20.8475 38.4211 20.8475C37.9062 20.8475 37.4044 21.0056 36.9866 21.2994C36.5687 21.5932 36.2561 22.0078 36.0928 22.4847H30.8386C30.6328 22.4847 30.4354 22.5645 30.2898 22.7066C30.1443 22.8488 30.0625 23.0416 30.0625 23.2426C30.0625 23.4436 30.1443 23.6364 30.2898 23.7785C30.4354 23.9207 30.6328 24.0005 30.8386 24.0005H36.0928C36.2561 24.4774 36.5687 24.892 36.9866 25.1858C37.4044 25.4796 37.9062 25.6376 38.4211 25.6376C38.9359 25.6376 39.4377 25.4796 39.8556 25.1858C40.2734 24.892 40.5861 24.4774 40.7494 24.0005H52.0364C52.2422 24.0005 52.4396 23.9207 52.5852 23.7785C52.7307 23.6364 52.8125 23.4436 52.8125 23.2426C52.8125 23.0416 52.7307 22.8488 52.5852 22.7066C52.4396 22.5645 52.2422 22.4847 52.0364 22.4847V22.4847Z" fill="#B5B2A6"/>
<path d="M52.0364 37.9982H40.7494C40.5861 37.5214 40.2734 37.1067 39.8556 36.813C39.4377 36.5192 38.9359 36.3611 38.4211 36.3611C37.9062 36.3611 37.4044 36.5192 36.9866 36.813C36.5687 37.1067 36.2561 37.5214 36.0928 37.9982H30.8386C30.6328 37.9982 30.4354 38.0781 30.2898 38.2202C30.1443 38.3623 30.0625 38.5551 30.0625 38.7561C30.0625 38.9572 30.1443 39.1499 30.2898 39.2921C30.4354 39.4342 30.6328 39.5141 30.8386 39.5141H36.0928C36.2548 39.9921 36.5669 40.4082 36.9849 40.7031C37.4029 40.9979 37.9054 41.1567 38.4211 41.1567C38.9367 41.1567 39.4392 40.9979 39.8572 40.7031C40.2752 40.4082 40.5874 39.9921 40.7494 39.5141H52.0364C52.2422 39.5141 52.4396 39.4342 52.5852 39.2921C52.7307 39.1499 52.8125 38.9572 52.8125 38.7561C52.8125 38.5551 52.7307 38.3623 52.5852 38.2202C52.4396 38.0781 52.2422 37.9982 52.0364 37.9982V37.9982Z" fill="#B5B2A6"/>
<path d="M52.0364 30.2421H47.8507C47.6887 29.764 47.3765 29.348 46.9585 29.0531C46.5405 28.7582 46.038 28.5995 45.5224 28.5995C45.0067 28.5995 44.5042 28.7582 44.0862 29.0531C43.6682 29.348 43.3561 29.764 43.1941 30.2421H30.8386C30.6328 30.2421 30.4354 30.3219 30.2898 30.4641C30.1443 30.6062 30.0625 30.799 30.0625 31C30.0625 31.201 30.1443 31.3938 30.2898 31.536C30.4354 31.6781 30.6328 31.758 30.8386 31.758H43.1941C43.3574 32.2348 43.67 32.6494 44.0879 32.9432C44.5057 33.237 45.0075 33.3951 45.5224 33.3951C46.0372 33.3951 46.539 33.237 46.9569 32.9432C47.3747 32.6494 47.6874 32.2348 47.8507 31.758H52.0364C52.2422 31.758 52.4396 31.6781 52.5852 31.536C52.7307 31.3938 52.8125 31.201 52.8125 31C52.8125 30.799 52.7307 30.6062 52.5852 30.4641C52.4396 30.3219 52.2422 30.2421 52.0364 30.2421V30.2421Z" fill="#B5B2A6"/>
</g>
<defs>
<filter id="filter0_bd_30_326" x="-34" y="-44" width="150" height="150" filterUnits="userSpaceOnUse" color-interpolation-filters="sRGB">
<feFlood flood-opacity="0" result="BackgroundImageFix"/>
<feGaussianBlur in="BackgroundImage" stdDeviation="25"/>
<feComposite in2="SourceAlpha" operator="in" result="effect1_backgroundBlur_30_326"/>
<feColorMatrix in="SourceAlpha" type="matrix" values="0 0 0 0 0 0 0 0 0 0 0 0 0 0 0 0 0 0 127 0" result="hardAlpha"/>
<feOffset dy="10"/>
<feGaussianBlur stdDeviation="8"/>
<feComposite in2="hardAlpha" operator="out"/>
<feColorMatrix type="matrix" values="0 0 0 0 0 0 0 0 0 0 0 0 0 0 0 0 0 0 0.2 0"/>
<feBlend mode="normal" in2="effect1_backgroundBlur_30_326" result="effect2_dropShadow_30_326"/>
<feBlend mode="normal" in="SourceGraphic" in2="effect2_dropShadow_30_326" result="shape"/>
</filter>
<clipPath id="clip0_30_326">
<rect width="22.75" height="20.3125" fill="white" transform="translate(30.0625 20.8438)"/>
</clipPath>
</defs>
</svg>
